{
	"asset":{
		"generator":"Khronos glTF Blender I/O v4.3.47",
		"version":"2.0"
	},
	"scene":0,
	"scenes":[
		{
			"name":"Scene",
			"nodes":[
				0,
				1,
				2,
				3,
				4,
				5,
				6,
				7,
				8,
				9,
				10
			]
		}
	],
	"nodes":[
		{
			"mesh":0,
			"name":"computer",
			"translation":[
				0,
				1.592002272605896,
				0
			]
		},
		{
			"mesh":1,
			"name":"home-button",
			"scale":[
				0.11960634589195251,
				0.11960634589195251,
				0.11960634589195251
			],
			"translation":[
				1.7555171251296997,
				0.860377311706543,
				0.955974817276001
			]
		},
		{
			"mesh":2,
			"name":"switch-button",
			"scale":[
				0.11960634589195251,
				0.11960634589195251,
				0.11960634589195251
			],
			"translation":[
				1.7555171251296997,
				1.1862777471542358,
				0.955974817276001
			]
		},
		{
			"mesh":3,
			"name":"screen",
			"translation":[
				0,
				1.592002272605896,
				0
			]
		},
		{
			"mesh":4,
			"name":"desktop",
			"translation":[
				0,
				0,
				0.14266622066497803
			]
		},
		{
			"mesh":5,
			"name":"keyboard",
			"translation":[
				-0.6190097332000732,
				-0.21884696185588837,
				3.1585230827331543
			]
		},
		{
			"mesh":6,
			"name":"mouse",
			"scale":[
				0.3945261836051941,
				0.3945261836051941,
				0.3945261836051941
			],
			"translation":[
				3.5543465614318848,
				-0.7551518678665161,
				2.4022011756896973
			]
		},
		{
			"mesh":7,
			"name":"table",
			"translation":[
				0,
				-0.6881368160247803,
				0
			]
		},
		{
			"mesh":8,
			"name":"Curve"
		},
		{
			"mesh":9,
			"name":"Curve.001",
			"rotation":[
				0.7071068286895752,
				0,
				0,
				0.7071068286895752
			],
			"scale":[
				0.7842053174972534,
				0.7842053174972534,
				0.7842053174972534
			],
			"translation":[
				1.6582672595977783,
				0.7944772243499756,
				1.0843894481658936
			]
		},
		{
			"name":"Empty",
			"rotation":[
				0.6069134473800659,
				0.155903622508049,
				-0.13089074194431305,
				0.7682563066482544
			],
			"scale":[
				1.5322455167770386,
				1.532245397567749,
				1.5322455167770386
			],
			"translation":[
				-6.224419116973877,
				3.5473709106445312,
				-0.2413100004196167
			]
		}
	],
	"materials":[
		{
			"doubleSided":true,
			"name":"computer"
		},
		{
			"doubleSided":true,
			"name":"button"
		},
		{
			"doubleSided":true,
			"name":"table-texture"
		},
		{
			"doubleSided":true,
			"name":"SVGMat.001",
			"pbrMetallicRoughness":{
				"baseColorFactor":[
					0,
					0,
					0,
					1
				],
				"metallicFactor":0,
				"roughnessFactor":0.4000000059604645
			}
		}
	],
	"meshes":[
		{
			"name":"Cube.008",
			"primitives":[
				{
					"attributes":{
						"POSITION":0,
						"NORMAL":1,
						"TEXCOORD_0":2,
						"COLOR_0":3,
						"COLOR_1":4
					},
					"indices":5,
					"material":0
				}
			]
		},
		{
			"name":"Cube.003",
			"primitives":[
				{
					"attributes":{
						"POSITION":6,
						"NORMAL":7,
						"TEXCOORD_0":8
					},
					"indices":9,
					"material":1
				}
			]
		},
		{
			"name":"Cube.002",
			"primitives":[
				{
					"attributes":{
						"POSITION":10,
						"NORMAL":11,
						"TEXCOORD_0":12
					},
					"indices":9,
					"material":1
				}
			]
		},
		{
			"name":"Cube.001",
			"primitives":[
				{
					"attributes":{
						"POSITION":13,
						"NORMAL":14,
						"TEXCOORD_0":15,
						"COLOR_0":16
					},
					"indices":17
				}
			]
		},
		{
			"name":"Cube.005",
			"primitives":[
				{
					"attributes":{
						"POSITION":18,
						"NORMAL":19,
						"TEXCOORD_0":20
					},
					"indices":21,
					"material":0
				}
			]
		},
		{
			"name":"Cube.006",
			"primitives":[
				{
					"attributes":{
						"POSITION":22,
						"NORMAL":23,
						"TEXCOORD_0":24
					},
					"indices":25,
					"material":0
				}
			]
		},
		{
			"name":"Cube.007",
			"primitives":[
				{
					"attributes":{
						"POSITION":26,
						"NORMAL":27,
						"TEXCOORD_0":28
					},
					"indices":29,
					"material":0
				}
			]
		},
		{
			"name":"Cube.009",
			"primitives":[
				{
					"attributes":{
						"POSITION":30,
						"NORMAL":31,
						"TEXCOORD_0":32
					},
					"indices":33,
					"material":2
				}
			]
		},
		{
			"name":"Curve.001",
			"primitives":[
				{
					"attributes":{
						"POSITION":34,
						"NORMAL":35,
						"TEXCOORD_0":36
					},
					"indices":37,
					"material":3
				}
			]
		},
		{
			"name":"Curve.002",
			"primitives":[
				{
					"attributes":{
						"POSITION":38,
						"NORMAL":39,
						"TEXCOORD_0":40
					},
					"indices":41,
					"material":3
				}
			]
		}
	],
	"accessors":[
		{
			"bufferView":0,
			"componentType":5126,
			"count":350,
			"max":[
				2.1539363861083984,
				1.3200812339782715,
				1
			],
			"min":[
				-2.1539363861083984,
				-1.9156219959259033,
				-1.2035284042358398
			],
			"type":"VEC3"
		},
		{
			"bufferView":1,
			"componentType":5126,
			"count":350,
			"type":"VEC3"
		},
		{
			"bufferView":2,
			"componentType":5126,
			"count":350,
			"type":"VEC2"
		},
		{
			"bufferView":3,
			"componentType":5121,
			"count":350,
			"normalized":true,
			"type":"VEC4"
		},
		{
			"bufferView":4,
			"componentType":5123,
			"count":350,
			"normalized":true,
			"type":"VEC4"
		},
		{
			"bufferView":5,
			"componentType":5123,
			"count":624,
			"type":"SCALAR"
		},
		{
			"bufferView":6,
			"componentType":5126,
			"count":24,
			"max":[
				1,
				1,
				1
			],
			"min":[
				-1,
				-1,
				-1
			],
			"type":"VEC3"
		},
		{
			"bufferView":7,
			"componentType":5126,
			"count":24,
			"type":"VEC3"
		},
		{
			"bufferView":8,
			"componentType":5126,
			"count":24,
			"type":"VEC2"
		},
		{
			"bufferView":9,
			"componentType":5123,
			"count":36,
			"type":"SCALAR"
		},
		{
			"bufferView":10,
			"componentType":5126,
			"count":24,
			"max":[
				1,
				1,
				1
			],
			"min":[
				-1,
				-1,
				-1
			],
			"type":"VEC3"
		},
		{
			"bufferView":11,
			"componentType":5126,
			"count":24,
			"type":"VEC3"
		},
		{
			"bufferView":12,
			"componentType":5126,
			"count":24,
			"type":"VEC2"
		},
		{
			"bufferView":13,
			"componentType":5126,
			"count":10,
			"max":[
				1.419776201248169,
				0.9471471905708313,
				0.8055874705314636
			],
			"min":[
				-1.419776201248169,
				-1.224560260772705,
				0.8055874705314636
			],
			"type":"VEC3"
		},
		{
			"bufferView":14,
			"componentType":5126,
			"count":10,
			"type":"VEC3"
		},
		{
			"bufferView":15,
			"componentType":5126,
			"count":10,
			"type":"VEC2"
		},
		{
			"bufferView":16,
			"componentType":5123,
			"count":10,
			"normalized":true,
			"type":"VEC4"
		},
		{
			"bufferView":17,
			"componentType":5123,
			"count":24,
			"type":"SCALAR"
		},
		{
			"bufferView":18,
			"componentType":5126,
			"count":112,
			"max":[
				2.2734923362731934,
				-0.2338564693927765,
				1
			],
			"min":[
				-2.1908960342407227,
				-1.1245379447937012,
				-1.3604198694229126
			],
			"type":"VEC3"
		},
		{
			"bufferView":19,
			"componentType":5126,
			"count":112,
			"type":"VEC3"
		},
		{
			"bufferView":20,
			"componentType":5126,
			"count":112,
			"type":"VEC2"
		},
		{
			"bufferView":21,
			"componentType":5123,
			"count":222,
			"type":"SCALAR"
		},
		{
			"bufferView":22,
			"componentType":5126,
			"count":745,
			"max":[
				2.929717779159546,
				-0.45404601097106934,
				0.2921738624572754
			],
			"min":[
				-1.9966189861297607,
				-0.908766508102417,
				-1.5896856784820557
			],
			"type":"VEC3"
		},
		{
			"bufferView":23,
			"componentType":5126,
			"count":745,
			"type":"VEC3"
		},
		{
			"bufferView":24,
			"componentType":5126,
			"count":745,
			"type":"VEC2"
		},
		{
			"bufferView":25,
			"componentType":5123,
			"count":2460,
			"type":"SCALAR"
		},
		{
			"bufferView":26,
			"componentType":5126,
			"count":86,
			"max":[
				0.6574185490608215,
				0.09840364009141922,
				1.6394855976104736
			],
			"min":[
				-1,
				-1,
				-1
			],
			"type":"VEC3"
		},
		{
			"bufferView":27,
			"componentType":5126,
			"count":86,
			"type":"VEC3"
		},
		{
			"bufferView":28,
			"componentType":5126,
			"count":86,
			"type":"VEC2"
		},
		{
			"bufferView":29,
			"componentType":5123,
			"count":144,
			"type":"SCALAR"
		},
		{
			"bufferView":30,
			"componentType":5126,
			"count":364,
			"max":[
				6.860732555389404,
				-0.4705137014389038,
				4.383992671966553
			],
			"min":[
				-6.860732555389404,
				-6.0370941162109375,
				-1.7028189897537231
			],
			"type":"VEC3"
		},
		{
			"bufferView":31,
			"componentType":5126,
			"count":364,
			"type":"VEC3"
		},
		{
			"bufferView":32,
			"componentType":5126,
			"count":364,
			"type":"VEC2"
		},
		{
			"bufferView":33,
			"componentType":5123,
			"count":750,
			"type":"SCALAR"
		},
		{
			"bufferView":34,
			"componentType":5126,
			"count":24,
			"max":[
				0.17064544558525085,
				0,
				-0.125181183218956
			],
			"min":[
				0.17055319249629974,
				0,
				-0.125181183218956
			],
			"type":"VEC3"
		},
		{
			"bufferView":35,
			"componentType":5126,
			"count":24,
			"type":"VEC3"
		},
		{
			"bufferView":36,
			"componentType":5126,
			"count":24,
			"type":"VEC2"
		},
		{
			"bufferView":37,
			"componentType":5123,
			"count":66,
			"type":"SCALAR"
		},
		{
			"bufferView":38,
			"componentType":5126,
			"count":1731,
			"max":[
				0.24802477657794952,
				0,
				-0.0001410841941833496
			],
			"min":[
				0.005503445863723755,
				-0.03999999910593033,
				-0.19393151998519897
			],
			"type":"VEC3"
		},
		{
			"bufferView":39,
			"componentType":5126,
			"count":1731,
			"type":"VEC3"
		},
		{
			"bufferView":40,
			"componentType":5126,
			"count":1731,
			"type":"VEC2"
		},
		{
			"bufferView":41,
			"componentType":5123,
			"count":3816,
			"type":"SCALAR"
		}
	],
	"bufferViews":[
		{
			"buffer":0,
			"byteLength":4200,
			"byteOffset":0,
			"target":34962
		},
		{
			"buffer":0,
			"byteLength":4200,
			"byteOffset":4200,
			"target":34962
		},
		{
			"buffer":0,
			"byteLength":2800,
			"byteOffset":8400,
			"target":34962
		},
		{
			"buffer":0,
			"byteLength":1400,
			"byteOffset":11200,
			"target":34962
		},
		{
			"buffer":0,
			"byteLength":2800,
			"byteOffset":12600,
			"target":34962
		},
		{
			"buffer":0,
			"byteLength":1248,
			"byteOffset":15400,
			"target":34963
		},
		{
			"buffer":0,
			"byteLength":288,
			"byteOffset":16648,
			"target":34962
		},
		{
			"buffer":0,
			"byteLength":288,
			"byteOffset":16936,
			"target":34962
		},
		{
			"buffer":0,
			"byteLength":192,
			"byteOffset":17224,
			"target":34962
		},
		{
			"buffer":0,
			"byteLength":72,
			"byteOffset":17416,
			"target":34963
		},
		{
			"buffer":0,
			"byteLength":288,
			"byteOffset":17488,
			"target":34962
		},
		{
			"buffer":0,
			"byteLength":288,
			"byteOffset":17776,
			"target":34962
		},
		{
			"buffer":0,
			"byteLength":192,
			"byteOffset":18064,
			"target":34962
		},
		{
			"buffer":0,
			"byteLength":120,
			"byteOffset":18256,
			"target":34962
		},
		{
			"buffer":0,
			"byteLength":120,
			"byteOffset":18376,
			"target":34962
		},
		{
			"buffer":0,
			"byteLength":80,
			"byteOffset":18496,
			"target":34962
		},
		{
			"buffer":0,
			"byteLength":80,
			"byteOffset":18576,
			"target":34962
		},
		{
			"buffer":0,
			"byteLength":48,
			"byteOffset":18656,
			"target":34963
		},
		{
			"buffer":0,
			"byteLength":1344,
			"byteOffset":18704,
			"target":34962
		},
		{
			"buffer":0,
			"byteLength":1344,
			"byteOffset":20048,
			"target":34962
		},
		{
			"buffer":0,
			"byteLength":896,
			"byteOffset":21392,
			"target":34962
		},
		{
			"buffer":0,
			"byteLength":444,
			"byteOffset":22288,
			"target":34963
		},
		{
			"buffer":0,
			"byteLength":8940,
			"byteOffset":22732,
			"target":34962
		},
		{
			"buffer":0,
			"byteLength":8940,
			"byteOffset":31672,
			"target":34962
		},
		{
			"buffer":0,
			"byteLength":5960,
			"byteOffset":40612,
			"target":34962
		},
		{
			"buffer":0,
			"byteLength":4920,
			"byteOffset":46572,
			"target":34963
		},
		{
			"buffer":0,
			"byteLength":1032,
			"byteOffset":51492,
			"target":34962
		},
		{
			"buffer":0,
			"byteLength":1032,
			"byteOffset":52524,
			"target":34962
		},
		{
			"buffer":0,
			"byteLength":688,
			"byteOffset":53556,
			"target":34962
		},
		{
			"buffer":0,
			"byteLength":288,
			"byteOffset":54244,
			"target":34963
		},
		{
			"buffer":0,
			"byteLength":4368,
			"byteOffset":54532,
			"target":34962
		},
		{
			"buffer":0,
			"byteLength":4368,
			"byteOffset":58900,
			"target":34962
		},
		{
			"buffer":0,
			"byteLength":2912,
			"byteOffset":63268,
			"target":34962
		},
		{
			"buffer":0,
			"byteLength":1500,
			"byteOffset":66180,
			"target":34963
		},
		{
			"buffer":0,
			"byteLength":288,
			"byteOffset":67680,
			"target":34962
		},
		{
			"buffer":0,
			"byteLength":288,
			"byteOffset":67968,
			"target":34962
		},
		{
			"buffer":0,
			"byteLength":192,
			"byteOffset":68256,
			"target":34962
		},
		{
			"buffer":0,
			"byteLength":132,
			"byteOffset":68448,
			"target":34963
		},
		{
			"buffer":0,
			"byteLength":20772,
			"byteOffset":68580,
			"target":34962
		},
		{
			"buffer":0,
			"byteLength":20772,
			"byteOffset":89352,
			"target":34962
		},
		{
			"buffer":0,
			"byteLength":13848,
			"byteOffset":110124,
			"target":34962
		},
		{
			"buffer":0,
			"byteLength":7632,
			"byteOffset":123972,
			"target":34963
		}
	],
	"buffers":[
		{
			"byteLength":131604,
			"uri":"final-computer-model.bin"
		}
	]
}
