<?xml version="1.0" encoding="UTF-8"?>
<svg id="Layer_2" data-name="Layer 2" xmlns="http://www.w3.org/2000/svg" viewBox="0 0 898.31 688.69">
  <defs>
    <style>
      .cls-1 {
        fill: #231f20;
        stroke: #231f20;
        stroke-miterlimit: 10;
      }
    </style>
  </defs>
  <path class="cls-1" d="M604.63,245.05c-.1,0-.21,0-.32,0,.29,0,.35,0,.32,0Z"/>
  <path class="cls-1" d="M681.35,1.4l-94.06,195.57h-268.22L216.59,1.4,19.5,688.19h859.31L681.35,1.4ZM632.18,558.71c0,51.96-42.11,75.27-94.06,78.26,0,0,0,0,0,0h-24.68c-23.48-1.01-45.44-8.15-64.22-19.83-.04-.02-.08-.02-.12,0-18.78,11.68-40.74,18.82-64.22,19.83h-24.68s0,0,0,0c-51.95-2.99-94.06-26.3-94.06-78.26v-37.46c0-27.83,23.02-50.28,51.06-49.34,26.81.9,47.67,23.8,47.67,50.63v13.16c0,27.52,29.03,46.02,53.56,33.53,4.05-2.06,6.59-4.26,6.59-6.51v-155.94c0-35.11-4.57-61.91,24.15-61.91-.83-.04.2-.02.32,0,1.01-.05,2.03-.08,3.06-.08,31.48,0,25.51,26.59,25.51,61.7l-.77,155.27c0,2.25,2.34,4.5,6.08,6.64,22.33,12.76,50.11-4.02,50.11-29.74v-16.12c0-26.83,20.86-49.73,47.67-50.63,28.04-.94,51.06,21.51,51.06,49.34v37.46Z"/>
</svg>